Coordinates
version=1
nRows=60
nColumns=12
inDegrees=yes

Units are S.I. units (second, meters, Newtons, ...)
Angles are in degrees

endheader
time	SC_y	SC_z	SC_x	AC_y	AC_z	AC_x	GH_y	GH_z	GH_yy	EL_x	PS_y
       0.0              -56.47           33.0         0.3156          44.24         -14.54          1.663          43.48          60.72         -86.81          81.54          112.0
   0.04039              -56.47           33.0         0.3183          44.24         -14.54          1.665          43.49          60.71         -86.79          81.54          112.0
   0.08079              -56.46          32.99         0.3212          44.24         -14.54          1.667           43.5           60.7         -86.77          81.54          112.0
    0.1212              -56.46          32.99         0.3242          44.24         -14.54           1.67          43.51          60.69         -86.75          81.54          112.0
    0.1616              -56.46          32.99         0.3274          44.24         -14.54          1.672          43.52          60.67         -86.72          81.54          112.0
     0.202              -56.45          32.99         0.3309          44.24         -14.53          1.674          43.54          60.66          -86.7          81.54          112.0
    0.2424              -56.45          32.98         0.3346          44.24         -14.53          1.677          43.55          60.65         -86.67          81.54          112.0
    0.2828              -56.44          32.98         0.3385          44.24         -14.53           1.68          43.57          60.63         -86.64          81.54          112.0
    0.3232              -56.44          32.98         0.3427          44.24         -14.52          1.683          43.58          60.62         -86.61          81.53          112.0
    0.3636              -56.43          32.97         0.3473          44.24         -14.52          1.686           43.6           60.6         -86.57          81.53          112.0
    0.4039              -56.43          32.97         0.3521          44.24         -14.52           1.69          43.62          60.58         -86.54          81.53          112.0
    0.4443              -56.42          32.97         0.3574          44.24         -14.51          1.694          43.64          60.56          -86.5          81.53          112.0
    0.4847              -56.42          32.96          0.363          44.24         -14.51          1.698          43.66          60.54         -86.45          81.53          112.0
    0.5251              -56.41          32.96         0.3691          44.24          -14.5          1.702          43.68          60.52         -86.41          81.53          112.0
    0.5655               -56.4          32.95         0.3757          44.23          -14.5          1.707          43.71          60.49         -86.36          81.53          112.0
    0.6059              -56.39          32.95         0.3828          44.23         -14.49          1.712          43.74          60.47          -86.3          81.53          112.0
    0.6463              -56.39          32.94         0.3906          44.23         -14.49          1.717          43.77          60.44         -86.25          81.53          112.1
    0.6867              -56.38          32.93         0.3991          44.23         -14.48          1.724           43.8           60.4         -86.18          81.53          112.1
    0.7271              -56.37          32.93         0.4083          44.23         -14.47           1.73          43.84          60.37         -86.11          81.53          112.1
    0.7675              -56.35          32.92         0.4184          44.23         -14.46          1.737          43.88          60.33         -86.04          81.53          112.1
    0.8079              -56.34          32.91         0.4295          44.23         -14.45          1.745          43.92          60.29         -85.95          81.53          112.1
    0.8483              -56.33           32.9         0.4418          44.23         -14.44          1.754          43.97          60.24         -85.86          81.53          112.1
    0.8887              -56.31          32.89         0.4553          44.23         -14.43          1.764          44.02          60.19         -85.76          81.53          112.1
    0.9291               -56.3          32.88         0.4702          44.23         -14.42          1.775          44.08          60.13         -85.65          81.53          112.2
    0.9695              -56.28          32.87         0.4869          44.23         -14.41          1.787          44.14          60.07         -85.52          81.52          112.2
      1.01              -56.26          32.85         0.5054          44.23         -14.39            1.8          44.22           60.0         -85.38          81.52          112.2
      1.05              -56.23          32.84         0.5262          44.23         -14.38          1.815           44.3          59.92         -85.22          81.52          112.3
     1.091              -56.21          32.82         0.5496          44.23         -14.36          1.832          44.39          59.84         -85.05          81.52          112.3
     1.131              -56.18           32.8          0.576          44.22         -14.34          1.851          44.49          59.74         -84.85          81.52          112.3
     1.171              -56.14          32.77         0.6061          44.22         -14.31          1.873          44.61          59.62         -84.62          81.51          112.4
     1.212               -56.1          32.75         0.6403          44.22         -14.29          1.897          44.74          59.49         -84.36          81.51          112.4
     1.252              -56.06          32.72         0.6796          44.22         -14.26          1.925          44.89          59.34         -84.07          81.51          112.5
     1.293              -56.01          32.68          0.725          44.22         -14.22          1.958          45.07          59.17         -83.73          81.51          112.5
     1.333              -55.95          32.64         0.7777          44.21         -14.18          1.996          45.28          58.97         -83.33           81.5          112.6
     1.373              -55.88          32.59         0.8394          44.21         -14.13           2.04          45.52          58.74         -82.86           81.5          112.7
     1.414               -55.8          32.54         0.9122          44.21         -14.07          2.093           45.8          58.47         -82.32          81.49          112.8
     1.454               -55.7          32.47         0.9986           44.2          -14.0          2.155          46.14          58.14         -81.66          81.49          112.9
     1.495              -55.58          32.39          1.102           44.2         -13.92           2.23          46.54          57.75         -80.88          81.48          113.1
     1.535              -55.44          32.29          1.228          44.19         -13.82           2.32          47.03          57.27         -79.94          81.47          113.2
     1.575              -55.27          32.18          1.381          44.18          -13.7           2.43          47.62          56.69         -78.78          81.46          113.5
     1.616              -55.06          32.03           1.57          44.18         -13.55          2.566          48.36          55.98         -77.36          81.44          113.7
     1.656              -54.79          31.85          1.805          44.16         -13.36          2.736          49.28          55.09         -75.58          81.42          114.1
     1.697              -54.46          31.62          2.102          44.15         -13.13          2.949          50.43          53.97         -73.35           81.4          114.5
     1.737              -54.04          31.33           2.48          44.13         -12.83          3.221           51.9          52.54          -70.5          81.37          115.0
     1.777              -53.49          30.95          2.963          44.11         -12.44          3.569          53.79          50.72         -66.86          81.34          115.7
     1.818              -52.79          30.47          3.583          44.07         -11.95          4.015           56.2          48.37         -62.19          81.29          116.6
     1.858               -51.9          29.86          4.375          44.04         -11.32          4.585          59.28          45.38         -56.22          81.23          117.7
     1.899              -50.78          29.09           5.37          43.99         -10.53          5.301          63.16          41.62         -48.72          81.15          119.2
     1.939              -49.42          28.15          6.584          43.92         -9.566          6.175          67.89          37.04         -39.58          81.06          120.9
     1.979              -47.84          27.07           7.99          43.85         -8.449          7.187          73.36          31.72         -28.98          80.96          122.9
      2.02              -46.12          25.89          9.513          43.78         -7.239          8.283           79.3          25.97          -17.5          80.84          125.1
      2.06              -44.41          24.71          11.04           43.7          -6.03          9.379          85.23          20.21         -6.026          80.73          127.2
     2.101              -42.83          23.63          12.44          43.63         -4.913          10.39           90.7           14.9          4.573          80.62          129.2
     2.141              -41.46          22.69          13.66          43.57         -3.949          11.26          95.43          10.31          13.72          80.53          131.0
     2.181              -40.34          21.92          14.65          43.52         -3.158          11.98          99.31          6.551          21.22          80.45          132.4
     2.222              -39.45          21.31          15.44          43.48         -2.529          12.55          102.4          3.559          27.19          80.39          133.5
     2.262              -38.75          20.83          16.06          43.45         -2.037           13.0          104.8          1.217          31.86          80.35          134.4
     2.303              -38.21          20.45          16.55          43.43         -1.653          13.34          106.7        -0.6088           35.5          80.31          135.1
     2.343              -37.78          20.16          16.92          43.41         -1.353          13.62          108.2         -2.035          38.34          80.28          135.6
     2.383              -37.45          19.93          17.22          43.39         -1.117          13.83          109.3         -3.157          40.58          80.26          136.0
